<svg id="Layer_1" data-name="Layer 1" xmlns="http://www.w3.org/2000/svg" viewBox="0 0 260.26 151.7"><defs><style>.cls-1{fill:#231f20;}.cls-2{fill:#ef3742;}</style></defs><path class="cls-1" d="M14.87,116.7v8.61c0,2.28,1.53,2,2,2H271.39v8.61h2v-8.59s.34-2-2-2H16.87V116.7Z" transform="translate(-14.87 -28.44)"/><path class="cls-1" d="M110.34,148l-8.37,22c0-7.12-7-8.57-9.31-9.13-7.87-2-9.36-2.32-9.36-4.75,0-2.64,2.55-3.56,4.74-3.56,3.31,0,6,1,6.2,4.74h6.68c0-7.25-6-10.1-12.56-10.1-5.61,0-11.57,3-11.72,9.25-.47-6.61-6.24-9.24-12.53-9.23-5.66,0-11.72,3.08-11.71,9.48,0,5.9,4.7,7.69,9.35,8.92s9.32,1.8,9.31,5.18c0,3.2-3.68,3.9-6.09,3.91-3.7,0-6.94-1.62-6.95-5.79H51.43l-7.85-21H36.52L24.63,179.4h7l2.46-7H45.81l2.36,7h7.16l-1.1-2.93c2.53,2.51,6.41,3.68,10.47,3.67,6.28,0,10.38-2.34,12.11-5.88,2.19,4,7,5.88,12.13,5.87,4.93,0,8.5-1.44,10.65-3.77l-1.14,3h7l2.46-7h11.73l2.38,7h7.16L117.42,148ZM35.86,167.28,40,155.78H40l4,11.5Zm53.33,7.49c-3.68,0-6.94-1.62-7-5.77H77.67c-.68-6.17-7.08-7.49-9.25-8-7.85-2-9.35-2.33-9.35-4.74,0-2.64,2.55-3.56,4.74-3.55,3.3,0,6,1,6.2,4.73h6.65c.32,5.39,4.83,7.12,9.32,8.29s9.32,1.8,9.32,5.18C95.3,174.07,91.62,174.77,89.19,174.77Zm20.49-7.51,4.09-11.51h.08l4,11.5Zm75.09-4.91A6.91,6.91,0,0,0,189,155.8c0-5.84-4-7.77-10-7.75H164.25v29l-10.87-29h-7.08l-11.9,31.37h7l2.45-7H155.6l2.37,7h21.5c5.66,0,11.06-2.75,11.06-9.12C190.53,166.38,188.59,163.44,184.77,162.35Zm-39.11,4.94,4.09-11.52h.09l3.95,11.52Zm25.49-13.91h6.45c2.46,0,4.75.62,4.76,3.61,0,2.64-1.81,3.74-4.21,3.73h-7ZM178.54,174h-7.38v-8.61h7.51c2.94,0,5,1.27,5,4.48S181.26,174,178.54,174Zm44.29-26.75c-9.7,0-15.42,7.23-15.41,16.55a17.92,17.92,0,0,0,2.71,9.72H198.44V148h-6.89v31.36h20v-4a14.75,14.75,0,0,0,11.3,4.69c9.71,0,15.41-7.25,15.4-16.3C238.26,154.51,232.54,147.26,222.83,147.28Zm0,27.05c-6.2,0-8.52-5.27-8.53-10.5,0-5.49,2.31-10.76,8.52-10.76s8.52,5.27,8.53,10.75C231.38,169.06,229,174.32,222.85,174.33Zm33-26.29-7.29,12.36L241.18,148H233.4L245,167.15V179.4h6.9V167.33L263.49,148Z" transform="translate(-14.87 -28.44)"/><path class="cls-2" d="M48.3,28.44s14.53.32,24.87,11.62c.21.35.46.66.06,1.08s-2.14,2.07-2.14,2.07-.58.94-1.48,0a33.7,33.7,0,0,0-14.77-8.82,34.23,34.23,0,0,0-6.35-1.1c-.59-.1-1.17-.15-1.21-1a31.18,31.18,0,0,1,0-3.13C47.37,29,47.34,28.39,48.3,28.44Z" transform="translate(-14.87 -28.44)"/><path class="cls-2" d="M73.05,52.81s.34.67,0,.95a21.58,21.58,0,0,1-3.21,1.55c-.48.17-.85.18-1.12-.33a26.08,26.08,0,0,0-12-11.88,24.51,24.51,0,0,0-13.57-2c-1.32.17-2,.42-2.3-.35s-.77-2.87-.85-3.18-.21-.86.41-1a30.1,30.1,0,0,1,13,.25A31.1,31.1,0,0,1,66,43.48,30.63,30.63,0,0,1,73.05,52.81Z" transform="translate(-14.87 -28.44)"/><path class="cls-2" d="M68.3,64.29s.2,1.09-.49,1.24-3.2,0-3.2,0-.47,0-.58-.87-.82-6.45-4.48-10.5a19.67,19.67,0,0,0-9.31-5.65c-3.17-.4-6.68-.8-10.32.73-1.14.47-1.61.81-2.07.09S36.49,47,36.49,47a.77.77,0,0,1,.35-1.17A21.69,21.69,0,0,1,52.6,44.65C55,45.49,62,47.83,65.8,55.58,67.17,58.78,68.06,60.46,68.3,64.29Z" transform="translate(-14.87 -28.44)"/><path class="cls-1" d="M66,72.52s.66-.15.72.37.07,5.88.07,5.88a1.08,1.08,0,0,1-1,1.1c-1.07.23-4.43.83-6.7-.88-1.28-1.09-2.55-1.59-4-5.7-.34-.81-1.12-7.64-1.21-8S53.13,59,47,57.67c-1.86-.08-4.3-.63-7.79,2.6A8.87,8.87,0,0,0,38,70.06c1.42,1.89,3.52,5.53,10,4,.48-.12.8-.28,1,0s3,4.5,3.11,4.73.47.54,0,.8a15.58,15.58,0,0,1-9.19,1.34c-2.2-.52-5.16-.8-9.27-5.51a15.41,15.41,0,0,1-3.11-10.89c.1-.81.88-7.54,6.64-11.1,2-1.15,6.69-4.55,14.61-1.24,2.6,1.41,6.31,3,8.51,10.83a22.13,22.13,0,0,1,.25,6.28c0,1.21.14,3.88,3.19,3.75A8.76,8.76,0,0,0,66,72.52Z" transform="translate(-14.87 -28.44)"/><path class="cls-2" d="M53.88,82.19a.94.94,0,0,1,1.11.09c.28.45,1.62,2.47,1.62,2.47a.65.65,0,0,1-.27,1,22.59,22.59,0,0,1-11.26,2.61A22.82,22.82,0,0,1,31.51,83c-2.6-2.62-6-6-7.06-11.28-.59-3.36-.66-2.92-.67-4.33,0-.25-.14-.92.77-1s2.28-.07,2.28-.07,1.06-.27,1.22,1.19A17.88,17.88,0,0,0,48.39,83.83,26.2,26.2,0,0,0,53.88,82.19Z" transform="translate(-14.87 -28.44)"/><path class="cls-2" d="M21.71,77s1.31-.84,1.87.31,5.16,9,11.43,11.38c1.52.7,5.37,3.26,14.38,2.26.87-.07,1.35-.29,1.65.85s.62,2.71.62,2.71.44.93-1,1.12a29.3,29.3,0,0,1-19.22-3.38C28,90.14,23.62,87.34,20.38,81.76,19.4,80,19,79,19,79s-.34-.57.4-.92S21.71,77,21.71,77Z" transform="translate(-14.87 -28.44)"/><path class="cls-2" d="M43.41,98.55s1.17-.18,1.1,1.15-.12,2.63-.12,2.63.07,1.12-1.3.78a36.24,36.24,0,0,1-11.44-2.69c-1.66-.7-8.29-3.79-12.23-8.23-.42-.46-1.17-1.22-.74-1.64s2.51-2.21,2.51-2.21a.86.86,0,0,1,1.1.07,33.38,33.38,0,0,0,8.85,6.65A37.71,37.71,0,0,0,43.41,98.55Z" transform="translate(-14.87 -28.44)"/><path class="cls-1" d="M93.26,40.73h6.37l4,24.17H97.26l-.58-4.33H88.19L85.75,64.9h-6.6ZM90.62,55.9h5.52l-.91-8.7h-.07Z" transform="translate(-14.87 -28.44)"/><path class="cls-1" d="M110.36,40.73h6.3l-3.93,18.76H124l-1.15,5.41H105.32Z" transform="translate(-14.87 -28.44)"/><path class="cls-1" d="M137.18,40.73h6.37l4,24.17h-6.34l-.57-4.33h-8.5l-2.44,4.33h-6.6ZM134.54,55.9h5.52l-.92-8.7h-.06Z" transform="translate(-14.87 -28.44)"/><path class="cls-1" d="M154,40.73h11.85c4.4,0,7.75,1.12,7.75,6.26,0,3.62-1.72,6.2-5.52,6.74v.07c1.8.44,2.47,1.69,2.47,4,0,1.76-.1,3.11-.1,4.5a5.66,5.66,0,0,0,.38,2.57H164.5a6.57,6.57,0,0,1-.2-1.38c0-1.26.17-2.54.17-4.17,0-2.13-.91-3.25-3.15-3.25h-4.2l-1.83,8.8H149Zm4.06,10.7h5c2.27,0,4.23-.71,4.23-3.32,0-2.07-1.72-2.51-3.38-2.51h-4.64Z" transform="translate(-14.87 -28.44)"/><path class="cls-1" d="M178.76,40.73h8.67L188.58,58h.06L197,40.73h8.67l-5,24.17h-6l4.54-19.19h-.07L189.56,64.9h-4.84l-1.43-19.19h-.06L179.64,64.9h-6Z" transform="translate(-14.87 -28.44)"/><path class="cls-1" d="M99.77,83.54c.27-2.23-1-4-3.9-4-4.77,0-6.57,5.52-6.57,9.35,0,3.11.92,5.48,4.47,5.48a5.12,5.12,0,0,0,5.12-4.26h6.29c-1.35,6.19-5.24,9.45-12.29,9.45C89.07,99.53,83,97.6,83,88.62c0-7.79,4.77-14.29,13-14.29,6.06,0,10.16,2.85,10.09,9.21Z" transform="translate(-14.87 -28.44)"/><path class="cls-1" d="M121.5,74.33c4.2,0,10.77,1.56,10.77,10.23,0,8.5-5,15-13.68,15-6.74,0-10.63-4-10.63-10.7C108,80.8,113.17,74.33,121.5,74.33Zm-2.4,20c4.54,0,6.87-5.41,6.87-9.24,0-3.59-1.28-5.59-4.67-5.59-4.88,0-7,5.35-7,9.35C114.26,92,115.75,94.34,119.1,94.34Z" transform="translate(-14.87 -28.44)"/><path class="cls-1" d="M137.69,74.84h6.46l5.66,15.81h.07l3-15.81H159l-5,24.18h-6.47L141.89,83.2h-.07L138.74,99h-6.1Z" transform="translate(-14.87 -28.44)"/><path class="cls-1" d="M180.55,80.26h-7.11l-4,18.76h-6.3l4-18.76H160l1.09-5.42h20.52Z" transform="translate(-14.87 -28.44)"/><path class="cls-1" d="M184.11,74.84H196c4.4,0,7.75,1.12,7.75,6.27,0,3.62-1.72,6.19-5.52,6.73v.07c1.8.44,2.48,1.69,2.48,4,0,1.76-.11,3.12-.11,4.5a5.73,5.73,0,0,0,.38,2.58H194.6a6.76,6.76,0,0,1-.2-1.39c0-1.25.17-2.54.17-4.17,0-2.13-.91-3.25-3.15-3.25h-4.2L185.39,99H179.1Zm4.06,10.7h5c2.27,0,4.23-.71,4.23-3.32,0-2.06-1.72-2.5-3.38-2.5h-4.64Z" transform="translate(-14.87 -28.44)"/><path class="cls-1" d="M218.71,74.33c4.2,0,10.77,1.56,10.77,10.23,0,8.5-5,15-13.68,15-6.74,0-10.63-4-10.63-10.7C205.17,80.8,210.38,74.33,218.71,74.33Zm-2.4,20c4.53,0,6.87-5.41,6.87-9.24,0-3.59-1.29-5.59-4.67-5.59-4.88,0-7,5.35-7,9.35C211.47,92,213,94.34,216.31,94.34Z" transform="translate(-14.87 -28.44)"/><path class="cls-1" d="M235.17,74.84h6.29L237.54,93.6h11.31L247.69,99H230.12Z" transform="translate(-14.87 -28.44)"/><path class="cls-1" d="M256.77,90.89c0,2.61,1.45,3.45,4.43,3.45,2.54,0,3.59-1.08,3.59-2.4,0-2.4-3.65-2.67-6.16-3.55-3-1.09-5.45-2.68-5.45-6.23,0-5.49,5-7.83,9.82-7.83,5.14,0,9.51,1.9,9.34,7.79h-6.29a2.29,2.29,0,0,0-.85-2,4.14,4.14,0,0,0-2.54-.65c-1.56,0-3.18.65-3.18,2.17s1,1.63,4.4,2.54,7.21,2.64,7.21,7.38c0,4.3-3.83,7.93-10.9,7.93-5.76,0-9.79-2.92-9.72-8.64Z" transform="translate(-14.87 -28.44)"/><path class="cls-1" d="M55,89.8a2,2,0,0,1,1,.26,1.79,1.79,0,0,1,.74.73,2,2,0,0,1,.27,1,2,2,0,0,1-.26,1,1.88,1.88,0,0,1-.74.74,2,2,0,0,1-2,0,2,2,0,0,1-.74-.74,2,2,0,0,1-.26-1,2,2,0,0,1,.27-1,1.86,1.86,0,0,1,.74-.73A2,2,0,0,1,55,89.8Zm0,.39a1.58,1.58,0,0,0-.78.21,1.42,1.42,0,0,0-.6.59,1.63,1.63,0,0,0,0,1.6,1.52,1.52,0,0,0,.59.59,1.61,1.61,0,0,0,1.59,0,1.52,1.52,0,0,0,.59-.59,1.63,1.63,0,0,0,0-1.6,1.48,1.48,0,0,0-.6-.59A1.58,1.58,0,0,0,55,90.19Zm-.9,2.67V90.74h1.11a.88.88,0,0,1,.33.08.55.55,0,0,1,.19.21.52.52,0,0,1,.08.3.56.56,0,0,1-.15.39.6.6,0,0,1-.41.2.58.58,0,0,1,.14.08.8.8,0,0,1,.15.16l.15.26.25.43h-.53l-.18-.35a1.23,1.23,0,0,0-.29-.43.49.49,0,0,0-.3-.09h-.11v.87Zm.43-1.2h.17a2.11,2.11,0,0,0,.47,0,.28.28,0,0,0,.14-.1.3.3,0,0,0,0-.16.28.28,0,0,0,0-.16.27.27,0,0,0-.15-.1,2,2,0,0,0-.46,0h-.17Z" transform="translate(-14.87 -28.44)"/><path class="cls-1" d="M272.92,95.1a2.25,2.25,0,0,1,1.09.29,2.06,2.06,0,0,1,.82.81,2.26,2.26,0,0,1,.3,1.11,2.2,2.2,0,0,1-.3,1.11,2,2,0,0,1-.81.81,2.19,2.19,0,0,1-1.1.3,2.17,2.17,0,0,1-1.1-.3,2.13,2.13,0,0,1-.82-.81,2.19,2.19,0,0,1-.29-1.11,2.26,2.26,0,0,1,.3-1.11,2,2,0,0,1,.82-.81A2.22,2.22,0,0,1,272.92,95.1Zm0,.44a1.69,1.69,0,0,0-.87.23,1.65,1.65,0,0,0-.66.65,1.8,1.8,0,0,0,0,1.78,1.77,1.77,0,0,0,3.08,0,1.77,1.77,0,0,0,0-1.78,1.65,1.65,0,0,0-.66-.65A1.75,1.75,0,0,0,272.92,95.54Zm-1,3V96.15h1.23a.82.82,0,0,1,.36.09.61.61,0,0,1,.22.23.63.63,0,0,1,.09.33.6.6,0,0,1-.17.44.74.74,0,0,1-.46.22l.16.09a1.07,1.07,0,0,1,.16.18s.08.12.18.28l.27.48h-.59l-.19-.38a2,2,0,0,0-.33-.49.59.59,0,0,0-.33-.1h-.12v1Zm.48-1.34h.19a2.52,2.52,0,0,0,.51,0,.31.31,0,0,0,.16-.11.28.28,0,0,0,.06-.18.27.27,0,0,0-.06-.17.31.31,0,0,0-.16-.11,2.25,2.25,0,0,0-.51,0h-.19Z" transform="translate(-14.87 -28.44)"/></svg>