<?xml version="1.0" encoding="UTF-8"?>
<svg id="Capa_1" data-name="Capa 1" xmlns="http://www.w3.org/2000/svg" viewBox="0 0 936.38 341.28">
  <defs>
    <style>
      .cls-1 {
        fill: #f8d234;
      }

      .cls-2 {
        fill: #191919;
      }
    </style>
  </defs>
  <path class="cls-2" d="M638.43.89c.73-1.16,1.89-.69,2.86-.69,49.15-.02,98.31-.52,147.45.14,38.82.52,72.62,14.81,100.95,41.4,24.83,23.3,39.93,51.99,45.89,85.51.13.73-.28,1.75.8,2.15v46.65c-1.58,3.1-1.61,6.59-2.37,9.88-14.31,62.57-64.9,109.17-128.15,117.95-15.36,2.13-30.82,1.21-46.25,1.39-4.27.05-4.27,0-4.27,4.29,0,9.56-.06,19.12.05,28.68.03,2.2-.32,3.04-2.84,3.04-37.08-.09-74.17-.06-111.26-.09-.97,0-2.14.47-2.87-.69.27-.93.1-1.88.1-2.81.01-32.71,0-65.42.03-98.13,0-1.35-.66-3.07,1.4-3.7,1.75-.48,3.55-.31,5.33-.32,64.57,0,129.15,0,193.72,0q6.2,0,6.2-6.21c0-2.21,0-4.41-.02-6.61-.02-1.81-.86-2.7-2.67-2.73-1.37-.03-2.73-.04-4.09-.04-64.36,0-128.73,0-193.09-.01-1.98,0-4,.27-5.92-.52-1.19-.66-.85-1.81-.85-2.81-.03-4.61-.02-9.22,0-13.84,0-3.32.21-3.6,3.53-3.63,8.49-.07,16.98-.02,25.47-.03,10.59,0,21.17.01,31.76-.01,1.57-.09,3.15-.13,4.72-.13,51.88,0,103.77,0,155.65,0,.84,0,1.68.02,2.52,0,3.45-.1,3.75-.37,3.79-3.84.04-2.94.02-5.88-.01-8.82-.02-1.94-.89-2.89-2.87-2.9-1.36,0-2.73-.03-4.09-.03-71.21,0-142.42,0-213.62-.01-1.98,0-4,.25-5.93-.48-.62-.31-.93-.81-.91-1.5.12-6.44-.31-12.89.23-19.32,1.77-1.33,3.83-.9,5.79-.9,39.08-.03,78.16-.02,117.24-.02,39.29,0,78.58,0,117.87,0q5.86,0,5.86-5.95c0-2.21-.04-4.41,0-6.62.03-2.15-.97-3.05-3.06-3.01-1.26.02-2.52-.01-3.78-.01-63.87,0-127.75,0-191.62,0-.74,0-1.47.04-2.2-.05-13.44-.22-26.88-.02-40.32-.09-1.16,0-2.31,0-3.46-.05-1.76-.08-2.62-.83-2.59-2.74.09-4.62.1-9.24,0-13.86-.04-1.95.91-2.62,2.59-2.8,1.68-.18,3.36-.12,5.04-.12,70.88,0,141.76,0,212.63,0,7.9,0,7.19.61,7.24-7.39,0-1.78-.08-3.58.01-5.35.15-2.61-1.09-3.61-3.58-3.47-1.15.07-2.31,0-3.46,0-71.09,0-142.18,0-213.26,0-7.17,0-7.21,0-7.16-7.09.03-4.09-.25-8.18.17-12.26,1.97-1.4,4.24-.97,6.4-.97,63.85-.02,127.71-.02,191.56-.02,7.95,0,7.21.55,7.26-7.38.01-1.89-.05-3.78,0-5.67.06-2.3-1.04-3.24-3.25-3.16-.84.03-1.68-.01-2.52-.01-60.07,0-120.14,0-180.22,0-5.97,0-11.92,1.29-17.91.33-2.11-.53-1.49-2.27-1.49-3.62-.03-22.24-.02-44.47-.03-66.71,0-.73.15-1.47-.11-2.19Z"/>
  <path class="cls-2" d="M313.11,72.52c-.01-23.32,0-46.63-.09-69.95,0-1.98.57-2.43,2.47-2.43,32.56.06,65.12.07,97.68-.03,2.17,0,2.87,1.15,3.75,2.59,17.76,28.96,35.52,57.91,53.3,86.89,1.33-.41,1.58-1.67,2.15-2.6,17.29-28.14,34.57-56.29,51.79-84.47,1.05-1.71,2.1-2.4,4.18-2.4,32.24.08,64.49.08,96.73,0,2.28,0,2.99.43,2.98,2.88-.07,99.78-.07,199.56,0,299.34,0,2.28-.44,2.98-2.88,2.98-103.14-.07-206.29-.07-309.43,0-2.26,0-2.74-.65-2.73-2.81.08-21.95.05-43.9.05-65.86,1.65-1.62,3.75-1.09,5.68-1.09,30.98-.04,61.96-.02,92.94-.03q6.13,0,6.13-6.26c0-2.2,0-4.41-.03-6.61-.02-1.83-.9-2.68-2.71-2.7-1.15-.01-2.31-.04-3.46-.04-30.98,0-61.96,0-92.94-.02-1.96,0-4.01.35-5.83-.81-.65-.75-.83-1.66-.86-2.6-.12-4.76-.13-9.51,0-14.27.02-.83.21-1.64.74-2.33,1.67-1.24,3.62-.91,5.47-.91,23.83-.02,47.65-.02,71.48-.02.84,0,1.68.01,2.52,0,3.85-.07,4.13-.33,4.17-4.11.03-2.62.05-5.25,0-7.87-.07-3.2-.41-3.51-3.71-3.61-1.05-.03-2.1-.01-3.15-.01-23.72,0-47.44,0-71.16-.01-1.86,0-3.8.31-5.52-.82-.73-.85-.85-1.91-.87-2.96-.08-4.51-.09-9.02,0-13.53.02-.95.16-1.89.75-2.69,1.55-1.21,3.4-.92,5.15-.92,16.69-.03,33.39-.01,50.08-.02,1.16,0,2.31,0,3.46-.08,1.37-.1,2.14-.77,2.2-2.16.15-3.67.11-7.35.02-11.02-.04-1.55-.88-2.25-2.39-2.31-1.05-.04-2.1-.05-3.15-.05-16.69,0-33.39,0-50.08-.02-1.76,0-3.6.27-5.2-.83-.64-.76-.81-1.69-.83-2.64-.11-4.7-.12-9.4,0-14.1.02-.84.19-1.66.7-2.37,1.43-1.19,3.16-.95,4.81-.95,9.75-.03,19.49,0,29.24-.03,4.04-.01,4.24-.24,4.27-4.28.02-2.72.03-5.45,0-8.17-.05-3.46-.32-3.78-3.79-3.79-9.85-.05-19.7,0-29.56-.03-1.66,0-3.38.22-4.87-.84-.62-.77-.83-1.69-.8-2.62.18-5.24-.78-10.52.61-15.71,1.15-1.19,2.68-1.03,4.12-1.06,3.14-.06,6.29-.05,9.43-.02,2.31.02,3.52-.84,3.46-3.31-.06-3.14-.06-6.29,0-9.43.04-2.16-.93-3-3.03-2.97-3.25.04-6.5.06-9.74-.02-1.33-.03-2.77.17-3.75-1.1Z"/>
  <path class="cls-2" d="M.48,72.42c-.06-3.46-.17-6.92-.17-10.38-.02-19.53.07-39.07-.09-58.6C.19.55,1.04.12,3.67.12c49.88.08,99.77-.31,149.64.18,39.9.39,74.41,14.96,103.41,42.4,9.27,8.77,17.29,18.57,23.87,29.52-1.79,1.26-3.85.84-5.81.84-53.46.02-106.91.02-160.36.02-36.13,0-72.25,0-108.38-.02-1.87,0-3.8.33-5.56-.64Z"/>
  <path class="cls-2" d="M278.31,236.66c-10.29,16.13-23.48,29.51-39.05,40.52-26.39,18.66-55.84,28-88.13,28.07-49.13.11-98.27,0-147.4.1-2.95,0-3.52-.83-3.5-3.59.15-21.73.13-43.46.17-65.19,1.29-1.23,2.93-1.01,4.48-1.02,8.09-.04,16.17-.02,24.26-.02,80.96,0,161.91,0,242.87.03,2.13,0,4.45-.63,6.31,1.1Z"/>
  <path class="cls-2" d="M.45,126.56c1.26.02,2.52.07,3.77.07,97.2,0,194.4,0,291.59,0,1.89,0,3.77.09,5.66.14,1.09.97,1.32,2.31,1.55,3.64.65,3.78.82,7.63,1.3,11.43.17,1.32.21,2.72-.9,3.79-79.05,0-158.11.02-237.17.03-21.94,0-43.88.04-65.82.06-.26-6.39-.26-12.77,0-19.16Z"/>
  <path class="cls-2" d="M.45,163.3c1.26.02,2.52.05,3.78.05,98.48,0,196.96,0,295.44.04,1.24,0,3.09-.99,3.58,1.32.89,5.99.34,11.77-2.37,17.26-1.25.08-2.5.23-3.75.23-97.95.01-195.89,0-293.83.01-.94,0-1.89.04-2.83.06-.27-6.33-.26-12.65,0-18.98Z"/>
  <path class="cls-2" d="M.45,199.86c1.26.02,2.52.05,3.78.05,95.37,0,190.74,0,286.11,0,1.89,0,3.78.04,5.67.06.55.74.56,1.57.27,2.38-1.81,5.2-3.73,10.35-6.27,15.25-.25.47-.7.75-1.2.94-1.08.62-2.26.36-3.39.36-95,0-190.01,0-285.01,0,.02-6.35.04-12.7.05-19.05Z"/>
  <path class="cls-2" d="M.46,90c1.26.02,2.52.07,3.78.07,94.17,0,188.34,0,282.52.03,1.3,0,2.75-.53,3.87.67.3.1.65.19.79.47,2.67,5.21,4.77,10.63,6.06,16.35.09.42-.06.82-.35,1.15-1.57.04-3.15.12-4.72.12-96.16,0-192.33,0-288.49,0-1.15,0-2.31.04-3.46.06-.27-6.31-.27-12.61,0-18.92Z"/>
  <rect class="cls-1" x="638.57" y="69.79" width="208.31" height="20.54"/>
  <rect class="cls-1" x=".21" y="73.13" width="329.39" height="17.83"/>
  <rect class="cls-1" y="109.24" width="351.05" height="17.83"/>
  <rect class="cls-1" y="145.48" width="373.73" height="17.83"/>
  <rect class="cls-1" y="181.67" width="396.4" height="17.83"/>
  <rect class="cls-1" x=".4" y="217.87" width="417.53" height="17.83"/>
  <rect class="cls-1" x="638.57" y="217.16" width="208.31" height="20.54"/>
  <rect class="cls-1" x="638.57" y="108.24" width="230.37" height="20.54"/>
  <rect class="cls-1" x="638.57" y="142.46" width="246.96" height="20.54"/>
  <rect class="cls-1" x="638.57" y="180.91" width="227.46" height="20.54"/>
</svg>