<?xml version="1.0" encoding="UTF-8"?> <svg xmlns="http://www.w3.org/2000/svg" id="Layer_1" data-name="Layer 1" viewBox="0 0 889.91 537.89"><defs><style>.cls-1{fill:#231f20;stroke:#a05861;stroke-width:16.25px;}.cls-1,.cls-4{stroke-miterlimit:10;}.cls-2{fill:#6a0032;}.cls-3{fill:#fff;}.cls-4{fill:#a05762;stroke:#a05762;stroke-width:6.25px;}</style></defs><path class="cls-1" d="M47.8,303.2,163.2,61.7c13.9-29.2,48.4-29,62.2.3l113,241.2L225.2,539.8c-13.8,28.9-47.8,29-61.9.3Z" transform="translate(-38.78 -31.79)"></path><path class="cls-1" d="M338.4,303.2,453.8,61.7c13.9-29.2,48.4-29,62.2.3L629,303.2,515.9,539.8c-13.8,28.9-47.8,29-61.9.3Z" transform="translate(-38.78 -31.79)"></path><path class="cls-1" d="M629,303.2,744.5,61.7c13.9-29.2,48.4-29,62.2.3l113,241.2L806.5,539.8c-13.8,28.9-47.8,29-61.9.3Z" transform="translate(-38.78 -31.79)"></path><path class="cls-2" d="M47.8,301.7,163.2,60.2c13.9-29.2,48.4-29,62.2.3l113,241.2L225.2,538.2c-13.8,28.9-47.8,29-61.9.3Z" transform="translate(-38.78 -31.79)"></path><path class="cls-2" d="M338.4,301.7,453.9,60.2c13.9-29.2,48.4-29,62.2.3l113,241.2L515.9,538.2c-13.8,28.9-47.8,29-61.9.3Z" transform="translate(-38.78 -31.79)"></path><path class="cls-2" d="M629,301.7,744.5,60.2c13.9-29.2,48.4-29,62.2.3l113,241.2L806.5,538.2c-13.8,28.9-47.8,29-61.9.3Z" transform="translate(-38.78 -31.79)"></path><path class="cls-3" d="M64.6,300.9,166,153.7c12.2-17.8,42.5-17.7,54.6.2l99.3,147L220.4,445c-12.1,17.6-42,17.7-54.3.2Z" transform="translate(-38.78 -31.79)"></path><path class="cls-3" d="M355.2,300.9,456.8,153.7c12.3-17.8,42.6-17.7,54.7.2l99.5,147L511.3,445c-12.2,17.6-42.1,17.7-54.4.2Z" transform="translate(-38.78 -31.79)"></path><path class="cls-3" d="M645.8,300.9,747.4,153.7c12.3-17.8,42.6-17.7,54.7.2l99.5,147L802,445c-12.2,17.6-42.1,17.7-54.4.2Z" transform="translate(-38.78 -31.79)"></path><path class="cls-4" d="M236.2,378.9l-7.5,2.3-7-8.6a48.52,48.52,0,0,1-13.1,6.5,53.76,53.76,0,0,1-15.7,2.1c-16.3,0-28.5-6.4-36.7-19.1s-12.3-31.7-12.3-56.8c0-15.7,2.2-29.4,6.8-41.2s11-20.9,19.4-27.3,18.3-9.5,29.7-9.5a121.52,121.52,0,0,1,17.3,1.2,143.84,143.84,0,0,1,18.4,4v30.3H226c-1.7-6.6-3.8-11.8-6.2-15.5a20.54,20.54,0,0,0-8.5-7.9q-5-2.4-12.6-2.4a25.74,25.74,0,0,0-18.4,7.7q-8,7.65-12.3,22.8c-2.9,10-4.4,22.1-4.4,36.3,0,14.4,1.2,26.7,3.7,36.9s6.2,17.9,11,23.1a23.78,23.78,0,0,0,18,7.8c7.6,0,13.2-1.9,16.9-5.7s5.5-9.6,5.5-17.5v-6.6c0-6.6-.3-11.4-.9-14.3a13.94,13.94,0,0,0-3.2-6.8c-1.5-1.6-4.1-2.9-7.6-4v-5.4h39v5.4a15.48,15.48,0,0,0-5.2,3,12.15,12.15,0,0,0-2.7,4.2,30.51,30.51,0,0,0-1.3,6.2q-.3,3.75-.3,10.5v38.3Z" transform="translate(-38.78 -31.79)"></path><path class="cls-4" d="M459.5,314.1v37.5a100.18,100.18,0,0,0,.5,11.5,16.61,16.61,0,0,0,1.6,5.4,9.22,9.22,0,0,0,2.9,3,29.83,29.83,0,0,0,6.3,2.6v5.4H430.1v-5.4c4-1.2,6.7-2.5,8-3.9s2.2-3.5,2.7-6.1a88.33,88.33,0,0,0,.6-12.1V256.6a93.35,93.35,0,0,0-.5-11.1,15.77,15.77,0,0,0-1.6-5.4,8.63,8.63,0,0,0-2.9-3.1,29.83,29.83,0,0,0-6.3-2.6V229h47.7c15,0,26.3,3.1,33.8,9.4s11.2,16,11.2,29.1c0,10.1-2.4,18.6-7.3,25.7s-12.1,12.6-21.8,16.5v.9a28.64,28.64,0,0,1,10.1,7.9q4.2,5.1,9.3,15.9l8.7,18.1a109,109,0,0,0,6.5,12.1,25.72,25.72,0,0,0,5.5,6.4,16.75,16.75,0,0,0,7.4,3.1v5.4H514.5a124.83,124.83,0,0,1-6.9-12.6c-2.2-4.5-4.3-9-6.5-13.7l-8.5-18.4a129.55,129.55,0,0,0-6.3-12.3,24,24,0,0,0-4.5-5.6,12.14,12.14,0,0,0-4.4-2.2,31,31,0,0,0-7.1-.6Zm0-75v65.5h10.9a55.66,55.66,0,0,0,13.6-1.4,23.79,23.79,0,0,0,9.6-5.2,26.8,26.8,0,0,0,7.1-10.8,46.41,46.41,0,0,0,2.7-16.9c0-7-1-12.8-3.1-17.4a22.84,22.84,0,0,0-9.5-10.6c-4.2-2.4-10-3.6-17.2-3.6C467.8,238.7,463.1,238.8,459.5,239.1Z" transform="translate(-38.78 -31.79)"></path><path class="cls-4" d="M785.9,349.4a95.22,95.22,0,0,0,.4,10.8,19,19,0,0,0,1.4,5.4,9.43,9.43,0,0,0,3,3.3,22.47,22.47,0,0,0,6.4,2.6v5.4H756.4v-5.4c4-1.2,6.7-2.5,8-3.9s2.2-3.5,2.7-6.1a88.33,88.33,0,0,0,.6-12.1V254a93.35,93.35,0,0,0-.5-11.1,15.77,15.77,0,0,0-1.6-5.4,8.63,8.63,0,0,0-2.9-3.1,29.83,29.83,0,0,0-6.3-2.6v-5.4h40.7v5.4a23.86,23.86,0,0,0-6.1,2.4,8.61,8.61,0,0,0-3,3,14.46,14.46,0,0,0-1.6,5.5,79,79,0,0,0-.5,11.2v95.5Z" transform="translate(-38.78 -31.79)"></path><path class="cls-2" d="M236.2,377.2l-7.5,2.3-7-8.6a48.52,48.52,0,0,1-13.1,6.5,53.76,53.76,0,0,1-15.7,2.1c-16.3,0-28.5-6.4-36.7-19.1s-12.3-31.7-12.3-56.8c0-15.7,2.2-29.4,6.8-41.2s11-20.9,19.4-27.3,18.3-9.5,29.7-9.5a121.52,121.52,0,0,1,17.3,1.2,143.84,143.84,0,0,1,18.4,4V261H226c-1.7-6.6-3.8-11.8-6.2-15.5a20.54,20.54,0,0,0-8.5-7.9q-5-2.4-12.6-2.4a25.74,25.74,0,0,0-18.4,7.7q-8,7.65-12.3,22.8c-2.9,10-4.4,22.1-4.4,36.3,0,14.4,1.2,26.7,3.7,36.9s6.2,17.9,11,23.1a23.78,23.78,0,0,0,18,7.8c7.6,0,13.2-1.9,16.9-5.7s5.5-9.6,5.5-17.5V340c0-6.6-.3-11.4-.9-14.3a13.94,13.94,0,0,0-3.2-6.8c-1.5-1.6-4.1-2.9-7.6-4v-5.4h39v5.4a15.48,15.48,0,0,0-5.2,3,12.15,12.15,0,0,0-2.7,4.2,30.51,30.51,0,0,0-1.3,6.2q-.3,3.75-.3,10.5v38.4Z" transform="translate(-38.78 -31.79)"></path><path class="cls-2" d="M459.5,312.3v37.5a100.18,100.18,0,0,0,.5,11.5,16.61,16.61,0,0,0,1.6,5.4,9.22,9.22,0,0,0,2.9,3,29.83,29.83,0,0,0,6.3,2.6v5.4H430.1v-5.4c4-1.2,6.7-2.5,8-3.9s2.2-3.5,2.7-6.1a88.33,88.33,0,0,0,.6-12.1V254.8a93.35,93.35,0,0,0-.5-11.1,15.77,15.77,0,0,0-1.6-5.4,8.63,8.63,0,0,0-2.9-3.1,29.83,29.83,0,0,0-6.3-2.6v-5.4h47.7c15,0,26.3,3.1,33.8,9.4s11.2,16,11.2,29.1c0,10.1-2.4,18.6-7.3,25.7s-12.1,12.6-21.8,16.5v.9a28.64,28.64,0,0,1,10.1,7.9q4.2,5.1,9.3,15.9l8.7,18.1a109,109,0,0,0,6.5,12.1,25.72,25.72,0,0,0,5.5,6.4,16.75,16.75,0,0,0,7.4,3.1v5.4H514.5a124.83,124.83,0,0,1-6.9-12.6c-2.2-4.5-4.3-9-6.5-13.7L492.6,333a129.55,129.55,0,0,0-6.3-12.3,24,24,0,0,0-4.5-5.6,12.14,12.14,0,0,0-4.4-2.2,31,31,0,0,0-7.1-.6Zm0-74.9v65.5h10.9a55.66,55.66,0,0,0,13.6-1.4,23.79,23.79,0,0,0,9.6-5.2,26.8,26.8,0,0,0,7.1-10.8,46.41,46.41,0,0,0,2.7-16.9c0-7-1-12.8-3.1-17.4a22.84,22.84,0,0,0-9.5-10.6c-4.2-2.4-10-3.6-17.2-3.6C467.8,236.9,463.1,237.1,459.5,237.4Z" transform="translate(-38.78 -31.79)"></path><path class="cls-2" d="M785.9,347.6a95.22,95.22,0,0,0,.4,10.8,19,19,0,0,0,1.4,5.4,9.43,9.43,0,0,0,3,3.3,22.47,22.47,0,0,0,6.4,2.6v5.4H756.4v-5.4c4-1.2,6.7-2.5,8-3.9s2.2-3.5,2.7-6.1a88.33,88.33,0,0,0,.6-12.1V252.2a93.35,93.35,0,0,0-.5-11.1,15.77,15.77,0,0,0-1.6-5.4,8.63,8.63,0,0,0-2.9-3.1,29.83,29.83,0,0,0-6.3-2.6v-5.4h40.7V230a23.86,23.86,0,0,0-6.1,2.4,8.61,8.61,0,0,0-3,3,14.46,14.46,0,0,0-1.6,5.5,79,79,0,0,0-.5,11.2v95.5Z" transform="translate(-38.78 -31.79)"></path></svg> 