<?xml version="1.0" encoding="UTF-8"?>
<svg id="Layer_1" xmlns="http://www.w3.org/2000/svg" version="1.1" viewBox="0 0 441.26 150.65">
  <!-- Generator: Adobe Illustrator 30.5.1, SVG Export Plug-In . SVG Version: 2.1.4 Build 3)  -->
  <defs>
    <style>
      .st0 {
        fill: #006fba;
      }
    </style>
  </defs>
  <path class="st0" d="M140.13,107.26c-4.75-2.49-8.61-7.76-14.91-15.84-4.63-5.92-9.82-13.14-12.04-15.94-.35-.42-.88-.66-1.44-.64l-13.54-.21c-.55,0-.78.31-.78.85v2.6c0,10.33,0,18.84.55,23.36.34,3.13.99,5.5,4.31,5.93,1.56.21,3.97.43,4.96.43.66,0,.93.32.93.65,0,.54-.55.86-1.76.86-6.08,0-13.02-.32-13.56-.32-.12,0-7.08.32-10.39.32-1.2,0-1.74-.23-1.74-.86,0-.32.19-.65.87-.65,1.12-.04,2.23-.19,3.32-.43,2.19-.43,2.78-2.78,3.19-5.93.56-4.52.56-13.03.56-23.36v-18.96c0-16.81,0-19.83-.23-23.27-.22-3.65-1.1-5.38-4.73-6.13-1.24-.23-2.51-.35-3.77-.34-.44,0-.93-.22-.93-.63,0-.65.56-.87,1.77-.87,4.97,0,11.92.33,12.46.33,1.22,0,9.61-.33,13.03-.33,6.96,0,14.34.65,20.21,4.73,2.73,1.96,7.6,7.24,7.6,14.66,0,7.96-3.42,15.93-13.35,24.87,9.04,11.32,16.55,20.9,22.97,27.59,2.03,2.19,4.39,4.06,6.98,5.56V0H0v150.65h150.65v-41.34c-5.29-.07-7.85-.64-10.51-2.04"/>
  <path class="st0" d="M105.69,31.32c-2.49-.06-4.97.16-7.41.64-.56.17-.94.7-.93,1.29v35.2c-.01.55.29,1.06.78,1.31,1.68.93,6.74,1.7,11.6,1.7,2.65,0,5.73-.31,8.27-2.04,3.86-2.58,6.73-8.39,6.73-16.59.05-13.42-7.23-21.51-19.05-21.51"/>
  <path class="st0" d="M177.76,89.08c.31,0,.31-.15.23-.45l-6.62-17.25c-.39-.93-.76-.93-1.12,0l-6.23,17.25c-.08.31,0,.45.22.45h13.52,0ZM170.35,62.86c.82-2.07,1.12-2.43,1.58-2.43.67,0,.93.87,1.58,2.28,1.23,2.66,11.91,28.66,16.02,38.2,2.42,5.62,4.24,6.49,5.68,6.88.86.25,1.75.37,2.65.38.4,0,.84.14.84.51s-.77.51-1.52.51c-.99,0-5.92,0-10.54-.13-1.29-.08-2.37-.08-2.37-.44s.17-.31.47-.45c.61-.22.93-.89.71-1.51-.03-.07-.06-.14-.1-.21l-5.99-14.43c-.16-.31-.23-.37-.61-.37h-15.41c-.33,0-.61.22-.69.54l-3.78,10.04c-.57,1.34-.9,2.77-.99,4.22,0,1.26,1.13,1.71,2.26,1.71h.61c.53,0,.68.21.68.51s-.37.51-.98.51c-1.58,0-5.23-.21-5.99-.21s-4.03.21-6.75.21c-.82,0-1.29-.14-1.29-.51.04-.3.31-.53.61-.51.45,0,1.44-.09,1.96-.16,3.05-.35,4.34-2.59,5.61-5.78l15.73-39.38.02.02Z"/>
  <path class="st0" d="M210.99,86.62c0,6.66,0,12.51.07,13.7.07,1.57.23,3.85.77,4.51.82,1.19,3.18,2.52,11.12,2.52,5.73.15,11.31-1.89,15.61-5.69,3.49-3.2,5.24-9.19,5.24-14.97.14-5.89-2.13-11.58-6.3-15.75-6.33-6.23-13.69-7.04-21.65-7.04-1.35,0-2.7.14-4.02.45-.57.13-.93.69-.83,1.26v21.01h0ZM204.92,79.82c0-9.78,0-11.57-.16-13.55-.15-2.16-.54-3.18-2.71-3.48-.76-.09-1.53-.14-2.3-.15-.26-.04-.47-.25-.52-.51,0-.38.29-.52,1.07-.52,3.03,0,7.35.14,7.73.14.77,0,5-.14,8.95-.14,6.68,0,18.89-.6,26.79,7.16,4.27,4.21,6.63,10,6.53,16,.04,6.63-2.55,13-7.22,17.7-2.88,2.89-8.88,7.24-20.25,7.24-2.89,0-6.49-.21-9.35-.36s-5.15-.37-5.46-.37c-.16,0-1.36.08-2.72.08s-2.96.13-4.03.13c-.68,0-1.05-.13-1.05-.51,0-.28.22-.5.49-.51h.03c.69-.03,1.38-.13,2.05-.31,1.29-.3,1.44-1.46,1.74-3.33.39-2.59.39-7.55.39-13.61v-11.11h0Z"/>
  <path class="st0" d="M305.2,99.89h.31c1.68-5.19,7.65-23.41,10.02-31.5.45-1.26.7-2.58.75-3.92,0-1.1-.53-1.85-3.56-1.85-.33,0-.59-.27-.61-.59,0-.3.31-.44,1.13-.44,3.41,0,6.23.14,6.83.14s3.33-.14,5.38-.14c.6,0,.93.14.93.37.03.33-.21.62-.54.65h-.08c-.77.02-1.53.12-2.28.29-1.96.69-3.03,3.19-4.32,6.68-2.96,7.99-9.55,27.97-12.22,35.01-1.74,4.63-2.12,5.4-2.88,5.4s-1.29-.82-2.19-3.25l-13.04-34.4c-2.28,5.49-11.3,28.5-13.75,34.34-1.12,2.68-1.57,3.34-2.34,3.34s-1.19-.66-2.58-4.96l-11.84-37.32c-1.05-3.32-1.73-4.12-3.47-4.73-1-.24-2.02-.37-3.05-.37-.33,0-.6-.26-.6-.58h0c0-.31.45-.45,1.07-.45,3.49,0,7.2.14,7.88.14s3.64-.14,6.98-.14c.93,0,1.21.14,1.21.43-.04.35-.34.61-.7.59-.8-.04-1.6.09-2.35.37-.59.17-.98.73-.93,1.33.27,1.98.7,3.94,1.3,5.85,1.07,3.99,7.88,27.08,8.72,29.69h.15l13.96-35.2c.98-2.53,1.44-2.9,1.85-2.9s.98.82,1.81,2.96l13.05,35.14v.02Z"/>
  <path class="st0" d="M334.55,79.82c0-9.78,0-11.57-.13-13.55-.17-2.16-.53-3.18-2.73-3.48-.76-.09-1.53-.14-2.3-.15-.26-.05-.46-.25-.52-.51,0-.38.31-.52,1.06-.52,3.04,0,7.41.14,7.74.14s14.4.07,15.92,0c1.3-.07,2.51-.31,3.05-.36.29-.14.6-.25.93-.31.23,0,.3.31.3.6-.22.98-.4,1.96-.52,2.95-.08.59-.23,3.41-.41,4.13-.06.31-.28.68-.58.68s-.54-.29-.54-.82c0-.75-.13-1.5-.38-2.21-.45-1.05-1.14-1.49-4.78-1.93-1.15-.15-8.88-.23-9.64-.23-.31,0-.36.23-.36.67v17.11c0,.44,0,.67.36.67.85,0,9.64,0,11.12-.15,1.47-.15,2.57-.23,3.27-.93.45-.45.75-.82.98-.82s.38.15.38.51c-.24,1.15-.41,2.31-.53,3.48-.16,1.27-.31,3.63-.31,4.09s-.15,1.18-.62,1.18c-.3,0-.45-.21-.45-.59.03-.7-.07-1.4-.3-2.06-.22-.93-.83-1.65-3.42-1.94-1.85-.22-8.95-.28-10.08-.28-.39,0-.44.21-.44.43v5.26c0,2.14-.08,9.47,0,10.74.14,4.21,1.35,5.01,7.97,5.01,1.72,0,4.93,0,6.65-.66s2.66-1.85,3.05-4.35c.15-.75.31-.97.69-.97s.45.52.45.97c-.18,2.04-.49,4.06-.93,6.06-.45,1.63-1.13,1.63-3.71,1.63-5.01,0-8.89-.16-11.62-.23-2.72-.07-4.55-.14-5.56-.14-.16,0-1.45,0-2.89.08-1.27.06-2.78.13-3.85.13-.68,0-1.07-.13-1.07-.51,0-.28.23-.51.51-.51h.03c.69-.06,1.38-.16,2.06-.31,1.29-.2,1.44-1.46,1.73-3.33.37-2.59.37-7.55.37-13.61l.05-11.07h0Z"/>
  <path class="st0" d="M379.85,91.06c0,9.26.15,13.04,1.37,14.16,1.05,1.03,3.61,1.47,8.86,1.47,3.48,0,6.49-.08,8.04-1.93.83-1.02,1.38-2.25,1.58-3.56.08-.45.31-.82.7-.82s.44.3.44.93c-.15,2.13-.48,4.24-.98,6.31-.46,1.45-.67,1.69-4.25,1.69-4.78,0-8.49-.07-11.6-.23-3.1-.17-5.32-.14-7.29-.14-.3,0-1.44,0-2.72.08-1.29.08-2.78.13-3.87.13-.68,0-1.08-.13-1.08-.51.01-.29.26-.52.55-.51h.01c.69-.02,1.38-.13,2.05-.31,1.29-.3,1.45-1.46,1.75-3.33.35-4.53.48-9.07.36-13.61v-11.12c0-9.78,0-11.57-.14-13.55-.16-2.16-.53-3.18-2.73-3.48-.76-.09-1.52-.14-2.28-.15-.27-.05-.48-.25-.53-.51,0-.38.31-.52,1.07-.52,3.03,0,7.2.14,7.58.14s5.32-.13,7.36-.13c.69,0,1.08.13,1.08.51,0,.2-.32.43-.54.43-.47,0-1.45.08-2.2.15-1.97.38-2.35,1.33-2.51,3.56-.07,1.98-.07,3.77-.07,13.55v11.3Z"/>
  <path class="st0" d="M417.86,91.06c0,9.26.13,13.04,1.36,14.16,1.05,1.03,3.65,1.47,8.88,1.47,3.47,0,6.44-.08,8.02-1.93.83-1.02,1.38-2.25,1.59-3.56.08-.45.31-.82.7-.82s.45.3.45.93c-.16,2.13-.49,4.24-1,6.31-.45,1.45-.68,1.69-4.24,1.69-4.79,0-8.5-.07-11.61-.23-3.11-.17-5.31-.14-7.28-.14-.3,0-1.45,0-2.73.08-1.29.08-2.78.13-3.85.13-.69,0-1.07-.13-1.07-.51,0-.28.21-.5.49-.51h.03c.7-.02,1.39-.13,2.06-.31,1.29-.3,1.44-1.46,1.75-3.33.35-4.53.48-9.07.36-13.61v-11.12c0-9.78,0-11.57-.14-13.55-.16-2.16-.54-3.18-2.78-3.47-.76-.1-1.52-.15-2.29-.16-.26-.05-.46-.25-.51-.51,0-.38.3-.51,1.08-.51,3.02,0,7.2.13,7.57.13s5.31-.13,7.35-.13c.7,0,1.07.13,1.07.51,0,.2-.29.43-.52.43-.47,0-1.44.08-2.2.15-1.97.38-2.35,1.33-2.5,3.56-.07,1.98-.07,3.77-.07,13.55l.04,11.28v.02Z"/>
  <path class="st0" d="M441.26,59.8c0,2.33-1.88,4.23-4.22,4.23s-4.23-1.88-4.23-4.22,1.88-4.23,4.22-4.23c1.12,0,2.2.44,2.99,1.23.81.78,1.26,1.86,1.24,2.98M440.8,59.8c0-2.05-1.66-3.7-3.71-3.7s-3.7,1.66-3.7,3.71,1.66,3.7,3.71,3.7c.97,0,1.91-.39,2.6-1.07.71-.69,1.11-1.65,1.1-2.64M435.5,57.42h1.74c.48-.04.97.08,1.37.35.27.21.42.52.42.86,0,.36-.15.7-.43.93-.27.21-.59.34-.93.36.13.06.25.14.37.23.13.12.25.27.35.42.13.18.25.36.36.56l.46.82h-.72l-.43-.73c-.19-.39-.45-.75-.76-1.06-.27-.13-.57-.19-.87-.17h-.37v1.95h-.58l.03-4.52h-.01ZM436.09,57.89v1.58h.57c.42.02.84,0,1.25-.1.15-.04.28-.13.37-.26.09-.12.15-.26.16-.42,0-.22-.09-.43-.26-.57-.38-.21-.81-.3-1.24-.24h-.85Z"/>
</svg>