<?xml version="1.0" encoding="utf-8"?>
<!-- Generator: Adobe Illustrator 30.5.1, SVG Export Plug-In . SVG Version: 9.03 Build 0)  -->
<svg version="1.0" id="Layer_1" xmlns="http://www.w3.org/2000/svg" xmlns:xlink="http://www.w3.org/1999/xlink" x="0px" y="0px"
	 viewBox="0 0 493.76 114.22" style="enable-background:new 0 0 493.76 114.22;" xml:space="preserve">
<style type="text/css">
	.st0{fill:#D22730;}
	.st1{fill:#FFFFFF;}
</style>
<path d="M160.62,41.48v44.18h12.42V47.21c-0.03-1.44,1.1-2.63,2.54-2.66c0.05,0,0.1,0,0.15,0h16V33.81h-23.35L160.62,41.48z
	 M211.35,47.21c-0.03-1.44,1.1-2.63,2.54-2.66c0.05,0,0.1,0,0.15,0h16.77c1.44-0.05,2.64,1.07,2.69,2.51c0,0.05,0,0.1,0,0.15v7.16
	h-22.15V47.21z M234.23,73.9c-0.53,0.65-1.34,1.02-2.18,1h-18c-1.44,0.05-2.64-1.07-2.69-2.51c0-0.05,0-0.1,0-0.15v-7.88h34.52
	V41.58l-7.76-7.77h-31.43l-7.81,7.67V78l7.77,7.66h31.57l9-8.89L239.14,69L234.23,73.9z M269.53,44.55h16.15
	c0.84-0.02,1.64,0.35,2.17,1l4.35,4.3l8.18-7.74l-8.39-8.29h-29.5l-7.77,7.67V55.2c0,3.37,2,6,6.94,6.85l24.22,4.18
	c1,0.21,1.66,0.72,1.66,1.84v4.2c0.03,1.44-1.1,2.63-2.54,2.66c-0.05,0-0.1,0-0.15,0h-15.84c-0.84,0.02-1.65-0.35-2.18-1l-5-4.7
	l-8.18,7.57l9,8.89h29.23l7.76-7.66V63.27c0-3.38-2-6-6.94-6.86l-24.22-4.19c-0.96-0.04-1.7-0.86-1.66-1.82c0-0.01,0-0.02,0-0.02
	v-3.17c-0.03-1.44,1.1-2.63,2.54-2.66C269.41,44.55,269.47,44.55,269.53,44.55L269.53,44.55z M312.18,26.35h12.84V14.28h-12.84
	V26.35z M305.55,33.81h19.26v51.85h-12.42V46.9c0.14-1.16-0.69-2.22-1.86-2.35c-0.18-0.02-0.36-0.02-0.53,0h-4.45V33.81z
	 M368.7,72.27c0.04,1.43-1.09,2.62-2.52,2.66c-0.06,0-0.12,0-0.17,0h-16.77c-1.44,0.05-2.64-1.07-2.69-2.51c0-0.05,0-0.1,0-0.15
	V47.21c-0.03-1.44,1.1-2.63,2.54-2.66c0.05,0,0.1,0,0.15,0h16.77c1.43-0.06,2.63,1.06,2.69,2.49c0,0.06,0,0.12,0,0.17V72.27z
	 M381.13,14.27h-12.84v19.54h-26.41l-7.77,7.67V78l7.77,7.66h31.47l7.77-7.77L381.13,14.27z M402.88,47.21
	c-0.04-1.43,1.09-2.62,2.52-2.66c0.06,0,0.12,0,0.17,0h16.77c1.44-0.05,2.64,1.07,2.69,2.51c0,0.05,0,0.1,0,0.15v7.16h-22.15V47.21z
	 M425.75,73.9c-0.53,0.65-1.33,1.02-2.17,1h-18c-1.43,0.06-2.63-1.06-2.69-2.49c0-0.06,0-0.12,0-0.17v-7.88h34.57V41.58l-7.76-7.77
	h-31.49l-7.77,7.67V78l7.77,7.66h31.57l9-8.89L430.7,69L425.75,73.9z M481.34,72.27c0.04,1.43-1.09,2.62-2.52,2.66
	c-0.06,0-0.12,0-0.17,0h-16.77c-1.44,0.05-2.64-1.07-2.69-2.51c0-0.05,0-0.1,0-0.15V47.21c-0.03-1.44,1.1-2.63,2.54-2.66
	c0.05,0,0.1,0,0.15,0h16.77c1.43-0.06,2.63,1.06,2.69,2.49c0,0.06,0,0.12,0,0.17V72.27z M486,33.81h-31.48l-7.76,7.67V78l7.76,7.66
	h31.47l7.77-7.77V41.58L486,33.81z"/>
<path class="st0" d="M0,0h114.22v114.22H0V0z"/>
<path class="st1" d="M28.55,57.11h28.56v28.55H28.55C28.55,85.66,28.55,57.11,28.55,57.11z M28.55,57.11V28.56h57.11v28.55H28.55z"
	/>
</svg>
